<?xml version="1.0" standalone="no"?><!DOCTYPE svg PUBLIC "-//W3C//DTD SVG 1.1//EN" "http://www.w3.org/Graphics/SVG/1.1/DTD/svg11.dtd"><svg t="1709892725197" class="icon" viewBox="0 0 1024 1024" version="1.1" xmlns="http://www.w3.org/2000/svg" p-id="2669" xmlns:xlink="http://www.w3.org/1999/xlink" width="200" height="200"><path d="M669.762079 375.230005v378.528362a12.131244 12.131244 0 0 1-2.292078 7.099852c-2.907026 53.053229-51.208386 104.764754-120.362068 122.989573-81.45264 21.802697-160.892723-10.677731-177.496315-72.675657s36.002402-129.698095 117.399137-151.556696c50.313916-13.417044 99.397936-6.261287 133.835017 15.597314V363.042856s-2.292078-59.929464 97.720805-24.430201a633.955342 633.955342 0 0 0 183.198559 36.61735v48.860403s-119.020364-3.801496-232.003057-48.860403z m-52.382377 369.974996c-9.615548-35.834689-68.818256-51.096577-117.399137-38.014959s-92.801223 55.904351-83.017962 91.73904 68.818256 51.096577 117.399137 38.014959 92.577606-55.904351 83.017962-91.73904zM547.611072 448.520609H156.783753A12.187149 12.187149 0 0 1 144.5407 436.053939v-24.15068a12.187149 12.187149 0 0 1 12.187148-12.187148h390.883224a12.187149 12.187149 0 0 1 12.187148 12.187148V436.053939a12.187149 12.187149 0 0 1-12.187148 12.46667z m0-122.095103H156.783753a12.187149 12.187149 0 0 1-12.187149-12.187148v-24.430202a12.187149 12.187149 0 0 1 12.187149-12.187148h390.827319a12.187149 12.187149 0 0 1 12.187148 12.187148v24.374297a12.187149 12.187149 0 0 1-12.187148 12.243053z m0-122.095103H156.783753a12.187149 12.187149 0 0 1-12.187149-12.187148V167.713053a12.187149 12.187149 0 0 1 12.187149-12.187148h390.827319A12.187149 12.187149 0 0 1 559.79822 167.713053v24.430202a12.187149 12.187149 0 0 1-12.187148 12.187148zM156.783753 521.755309h305.349566a12.187149 12.187149 0 0 1 12.187148 12.187149v24.430201a12.187149 12.187149 0 0 1-12.187148 12.187149H156.783753a12.187149 12.187149 0 0 1-12.187149-12.187149v-24.374297a12.187149 12.187149 0 0 1 12.187149-12.243053z m0 109.907955H327.515641a12.187149 12.187149 0 0 1 12.187149 12.187148v24.430202a12.187149 12.187149 0 0 1-12.187149 12.187148H156.783753a12.187149 12.187149 0 0 1-12.187149-12.187148v-24.430202a12.187149 12.187149 0 0 1 12.187149-12.131244z" p-id="2670"></path><path d="M1020.729595 965.524049a58.475951 58.475951 0 0 1-58.475951 58.475951H61.746356A58.475951 58.475951 0 0 1 3.270405 965.524049V58.475951A58.475951 58.475951 0 0 1 61.746356 0h900.507288A58.475951 58.475951 0 0 1 1020.729595 58.475951z m-44.72348-879.543157a44.164437 44.164437 0 0 0-44.164438-44.164437H92.158323a44.164437 44.164437 0 0 0-44.164438 44.164437v851.982312a44.164437 44.164437 0 0 0 44.164438 44.164437h839.62745a44.164437 44.164437 0 0 0 44.164437-44.164437V85.980892z" p-id="2671"></path></svg>